<svg width="256" height="256" viewBox="0 0 256 256" fill="none" xmlns="http://www.w3.org/2000/svg">
  <rect width="256" height="256" rx="56" fill="#0F766E"/>
  <path d="M59 86C59 69.4315 72.4315 56 89 56H173V84H89C87.3431 84 86 85.3431 86 87C86 88.6569 87.3431 90 89 90H153C169.569 90 183 103.431 183 120C183 136.569 169.569 150 153 150H103C101.343 150 100 151.343 100 153C100 154.657 101.343 156 103 156H197V184H103C86.4315 184 73 170.569 73 154C73 137.431 86.4315 124 103 124H153C154.657 124 156 122.657 156 121C156 119.343 154.657 118 153 118H89C72.4315 118 59 104.569 59 88V86Z" fill="white"/>
</svg>
